G04*
G04 #@! TF.GenerationSoftware,Altium Limited,Altium Designer,20.2.6 (244)*
G04*
G04 Layer_Color=32768*
%FSLAX43Y43*%
%MOMM*%
G71*
G04*
G04 #@! TF.SameCoordinates,EC15BF54-4284-41A4-B97D-D3D31D67AEB8*
G04*
G04*
G04 #@! TF.FilePolarity,Positive*
G04*
G01*
G75*
%ADD10C,0.150*%
G36*
X16325Y26990D02*
X17325D01*
X17325Y26840D01*
X16325D01*
Y26990D01*
D02*
G37*
G36*
X19125Y27084D02*
X19560D01*
Y26934D01*
X19125D01*
Y26290D01*
X18925D01*
Y26934D01*
X18560D01*
X18560Y27084D01*
X18925D01*
Y27690D01*
X19125D01*
Y27084D01*
D02*
G37*
G36*
X68900Y26840D02*
X67900D01*
Y26990D01*
X68900D01*
Y26840D01*
D02*
G37*
G36*
X70700Y27690D02*
Y27084D01*
X71135D01*
X71135Y26934D01*
X70700D01*
Y26290D01*
X70500D01*
Y26934D01*
X70135D01*
Y27084D01*
X70500D01*
Y27690D01*
X70700Y27690D01*
D02*
G37*
G36*
X72945Y24835D02*
X73288Y24960D01*
X73339Y24819D01*
X72996Y24694D01*
X73203Y24125D01*
X73015Y24057D01*
X72808Y24626D01*
X72400Y24477D01*
X72348Y24618D01*
X72757Y24767D01*
X72536Y25372D01*
X72724Y25441D01*
X72945Y24835D01*
D02*
G37*
G36*
X75407Y25672D02*
X74467Y25330D01*
X74416Y25471D01*
X75356Y25813D01*
X75407Y25672D01*
D02*
G37*
G36*
X73200Y29950D02*
X72979Y29344D01*
X73323Y29219D01*
X73271Y29079D01*
X72928Y29204D01*
X72721Y28634D01*
X72533Y28703D01*
X72740Y29272D01*
X72332Y29421D01*
X72383Y29562D01*
X72791Y29413D01*
X73012Y30018D01*
X73200Y29950D01*
D02*
G37*
G36*
X75404Y28403D02*
X74464Y28745D01*
X74515Y28886D01*
X75455Y28544D01*
X75404Y28403D01*
D02*
G37*
D10*
X71425Y44325D02*
G03*
X71425Y44325I-75J0D01*
G01*
M02*
