G04*
G04 #@! TF.GenerationSoftware,Altium Limited,Altium Designer,20.2.6 (244)*
G04*
G04 Layer_Physical_Order=2*
G04 Layer_Color=16711680*
%FSLAX43Y43*%
%MOMM*%
G71*
G04*
G04 #@! TF.SameCoordinates,EC15BF54-4284-41A4-B97D-D3D31D67AEB8*
G04*
G04*
G04 #@! TF.FilePolarity,Positive*
G04*
G01*
G75*
%ADD11C,0.254*%
%ADD25C,0.500*%
%ADD26C,0.500*%
%ADD27R,1.000X1.250*%
G04:AMPARAMS|DCode=28|XSize=1mm|YSize=1.25mm|CornerRadius=0mm|HoleSize=0mm|Usage=FLASHONLY|Rotation=340.000|XOffset=0mm|YOffset=0mm|HoleType=Round|Shape=Rectangle|*
%AMROTATEDRECTD28*
4,1,4,-0.684,-0.416,-0.256,0.758,0.684,0.416,0.256,-0.758,-0.684,-0.416,0.0*
%
%ADD28ROTATEDRECTD28*%

G04:AMPARAMS|DCode=29|XSize=1mm|YSize=1.25mm|CornerRadius=0mm|HoleSize=0mm|Usage=FLASHONLY|Rotation=20.000|XOffset=0mm|YOffset=0mm|HoleType=Round|Shape=Rectangle|*
%AMROTATEDRECTD29*
4,1,4,-0.256,-0.758,-0.684,0.416,0.256,0.758,0.684,-0.416,-0.256,-0.758,0.0*
%
%ADD29ROTATEDRECTD29*%

G36*
X80420Y50399D02*
X80831Y50229D01*
X81200Y49982D01*
X81514Y49668D01*
X81761Y49299D01*
X81931Y48888D01*
X82018Y48453D01*
Y48231D01*
Y37201D01*
Y36979D01*
X81931Y36543D01*
X81761Y36132D01*
X81514Y35763D01*
X81200Y35449D01*
X80831Y35202D01*
X80420Y35032D01*
X79984Y34945D01*
X76512D01*
Y36875D01*
X76517Y36879D01*
X76606Y37012D01*
X76637Y37169D01*
X76606Y37326D01*
X76517Y37459D01*
X76384Y37548D01*
X76227Y37579D01*
X76070Y37548D01*
X75937Y37459D01*
X75848Y37326D01*
X75817Y37169D01*
X75848Y37012D01*
X75937Y36879D01*
X75942Y36875D01*
Y34945D01*
X74435D01*
Y36875D01*
X74440Y36879D01*
X74529Y37012D01*
X74560Y37169D01*
X74529Y37326D01*
X74440Y37459D01*
X74307Y37548D01*
X74150Y37579D01*
X73993Y37548D01*
X73860Y37459D01*
X73771Y37326D01*
X73740Y37169D01*
X73771Y37012D01*
X73860Y36879D01*
X73865Y36875D01*
Y34945D01*
X70885D01*
Y35578D01*
X72067Y36760D01*
X72073Y36759D01*
X72230Y36790D01*
X72363Y36879D01*
X72452Y37012D01*
X72483Y37169D01*
X72452Y37326D01*
X72363Y37459D01*
X72230Y37548D01*
X72073Y37579D01*
X71916Y37548D01*
X71783Y37459D01*
X71694Y37326D01*
X71663Y37169D01*
X71664Y37163D01*
X70399Y35898D01*
X70337Y35805D01*
X70315Y35696D01*
X70315Y35696D01*
Y35032D01*
X70188Y34954D01*
X69797Y35032D01*
X69387Y35202D01*
X69018Y35449D01*
X68848Y35618D01*
X69990Y36760D01*
X69996Y36759D01*
X70153Y36790D01*
X70286Y36879D01*
X70375Y37012D01*
X70406Y37169D01*
X70375Y37326D01*
X70286Y37459D01*
X70153Y37548D01*
X69996Y37579D01*
X69839Y37548D01*
X69706Y37459D01*
X69617Y37326D01*
X69586Y37169D01*
X69587Y37163D01*
X68574Y36150D01*
X68433Y36189D01*
X68287Y36543D01*
X68200Y36978D01*
Y37200D01*
Y48234D01*
Y48456D01*
X68287Y48891D01*
X68456Y49301D01*
X68703Y49670D01*
X69016Y49983D01*
X69385Y50230D01*
X69795Y50399D01*
X70230Y50486D01*
X79984D01*
X80420Y50399D01*
D02*
G37*
%LPC*%
G36*
X74200Y47204D02*
X74043Y47173D01*
X73910Y47084D01*
X73821Y46951D01*
X73809Y46891D01*
X70589Y44954D01*
X70492Y44973D01*
X70335Y44942D01*
X70202Y44853D01*
X70113Y44720D01*
X70081Y44563D01*
X70113Y44406D01*
X70202Y44273D01*
X70335Y44184D01*
X70492Y44153D01*
X70649Y44184D01*
X70782Y44273D01*
X70871Y44406D01*
X70883Y44466D01*
X74103Y46403D01*
X74200Y46383D01*
X74357Y46414D01*
X74490Y46503D01*
X74579Y46637D01*
X74610Y46794D01*
X74579Y46951D01*
X74490Y47084D01*
X74357Y47173D01*
X74200Y47204D01*
D02*
G37*
%LPD*%
D11*
X69459Y27253D02*
Y27430D01*
X70080Y28051D02*
Y35649D01*
X69459Y27430D02*
X70080Y28051D01*
X69196Y26990D02*
X69459Y27253D01*
X68400Y26990D02*
X69196D01*
X18047Y25933D02*
X19650D01*
X20301Y26584D02*
X59985D01*
X19650Y25933D02*
X20301Y26584D01*
X59985D02*
X69939Y36537D01*
X69996D01*
X17898Y26081D02*
Y26778D01*
Y26081D02*
X18047Y25933D01*
X69982Y35649D02*
X70166Y35833D01*
X17686Y26990D02*
X17898Y26778D01*
X16825Y26990D02*
X17686D01*
X19025D02*
X59817D01*
X69996Y37169D01*
X70166Y35833D02*
Y35837D01*
X70313Y35983D01*
X74893Y25546D02*
X74937Y25501D01*
X74893Y25546D02*
Y28533D01*
X74934Y28574D01*
Y30530D01*
X76633Y32229D01*
Y35256D01*
X71695Y25738D02*
Y30499D01*
X74150Y32954D01*
Y37169D01*
X71695Y25738D02*
X72684Y24749D01*
X72870D01*
X76227Y32398D02*
Y37169D01*
X72866Y29326D02*
X73230Y29690D01*
X73519D01*
X76227Y32398D01*
X70600Y26990D02*
Y35696D01*
X72073Y37169D01*
X70492Y44563D02*
X74200Y46794D01*
D25*
X46781Y40706D02*
X55578Y42025D01*
D26*
X76227Y37169D02*
D03*
X74150D02*
D03*
X72073D02*
D03*
X69996D02*
D03*
X70427Y41523D02*
D03*
X79439Y42325D02*
D03*
X79439Y44325D02*
D03*
X74200Y48300D02*
D03*
X72100Y48247D02*
D03*
X74200Y46794D02*
D03*
X70492Y44563D02*
D03*
X55578Y42025D02*
D03*
X46781Y40706D02*
D03*
D27*
X19025Y26990D02*
D03*
X16825D02*
D03*
X68400Y26990D02*
D03*
X70600D02*
D03*
D28*
X72866Y29326D02*
D03*
X74934Y28574D02*
D03*
D29*
X72870Y24749D02*
D03*
X74937Y25501D02*
D03*
M02*
