G04*
G04 #@! TF.GenerationSoftware,Altium Limited,Altium Designer,20.2.6 (244)*
G04*
G04 Layer_Color=32896*
%FSLAX43Y43*%
%MOMM*%
G71*
G04*
G04 #@! TF.SameCoordinates,EC15BF54-4284-41A4-B97D-D3D31D67AEB8*
G04*
G04*
G04 #@! TF.FilePolarity,Positive*
G04*
G01*
G75*
%ADD11C,0.254*%
D11*
X0Y3180D02*
G03*
X3180Y0I3180J0D01*
G01*
Y53980D02*
G03*
X0Y50800I0J-3180D01*
G01*
X85600Y50800D02*
G03*
X82420Y53980I-3180J0D01*
G01*
Y0D02*
G03*
X85600Y3180I0J3180D01*
G01*
X43800Y53980D02*
X82420D01*
X43800Y0D02*
X82420D01*
X3180Y0D02*
X41800D01*
X3180Y53980D02*
X41800D01*
X43800Y-2020D02*
Y0D01*
Y-2020D02*
X45300Y-3520D01*
X41800Y-1895D02*
Y0D01*
X40300Y-3395D02*
X41800Y-1895D01*
X42800Y-5725D02*
X45300D01*
Y-3520D01*
X40300Y-5725D02*
X42800D01*
X40300D02*
Y-3395D01*
X45300Y57375D02*
Y59705D01*
X42800D02*
X45300D01*
X40300Y57500D02*
Y59705D01*
X42800D01*
X43800Y55875D02*
X45300Y57375D01*
X43800Y53980D02*
Y55875D01*
X40300Y57500D02*
X41800Y56000D01*
Y53980D02*
Y56000D01*
X0Y3180D02*
X0Y50800D01*
X85600Y50800D02*
X85600Y3180D01*
M02*
