G04*
G04 #@! TF.GenerationSoftware,Altium Limited,Altium Designer,20.2.6 (244)*
G04*
G04 Layer_Physical_Order=1*
G04 Layer_Color=255*
%FSLAX43Y43*%
%MOMM*%
G71*
G04*
G04 #@! TF.SameCoordinates,EC15BF54-4284-41A4-B97D-D3D31D67AEB8*
G04*
G04*
G04 #@! TF.FilePolarity,Positive*
G04*
G01*
G75*
%ADD11C,0.254*%
%ADD14R,0.665X0.280*%
%ADD15R,1.500X2.650*%
%ADD16R,0.864X0.806*%
%ADD17R,0.800X0.900*%
%ADD18R,0.900X0.800*%
%ADD25C,0.500*%
%ADD26C,0.500*%
D11*
X70427Y41523D02*
X70729Y41825D01*
X70427Y41523D02*
Y41523D01*
X70729Y41825D02*
X71550D01*
X68958Y42025D02*
X69835D01*
X68958Y43125D02*
X69835D01*
Y42025D02*
X70135Y42325D01*
X71550D01*
X70135Y42825D02*
X71550D01*
X69835Y43125D02*
X70135Y42825D01*
X55575Y43125D02*
X55581D01*
X78039Y42325D02*
Y44325D01*
X74750D02*
X78039D01*
X69425Y44429D02*
X70529Y43325D01*
X70730Y44325D02*
X71550D01*
X70492Y44563D02*
X70730Y44325D01*
X78039Y42325D02*
X78039Y42325D01*
X70529Y43325D02*
X71550D01*
D14*
X71749Y41825D02*
D03*
Y42325D02*
D03*
Y42825D02*
D03*
Y43325D02*
D03*
Y43825D02*
D03*
Y44325D02*
D03*
X74550D02*
D03*
Y43825D02*
D03*
Y43325D02*
D03*
Y42825D02*
D03*
Y42325D02*
D03*
Y41825D02*
D03*
D15*
X73150Y43075D02*
D03*
D16*
X74150Y37169D02*
D03*
Y38676D02*
D03*
X76227Y37169D02*
D03*
Y38676D02*
D03*
X72073Y37169D02*
D03*
Y38676D02*
D03*
X69996Y37169D02*
D03*
Y38676D02*
D03*
X74200Y46794D02*
D03*
Y48300D02*
D03*
D17*
X79439Y42325D02*
D03*
X78039D02*
D03*
X78039Y44325D02*
D03*
X79439D02*
D03*
D18*
X72100Y48247D02*
D03*
Y46847D02*
D03*
D25*
X78039Y39411D02*
Y42325D01*
X77304Y38676D02*
X78039Y39411D01*
X75227Y38676D02*
X77304D01*
X69996D02*
X71073D01*
X55578Y42025D02*
X68958D01*
X55581Y43125D02*
X68958D01*
X55581D02*
Y49506D01*
X54481D02*
X55581D01*
X73150Y38676D02*
X75227D01*
X71073D02*
X73150D01*
X72406Y45504D02*
X77722D01*
X78039Y44325D02*
Y44500D01*
X78014Y44525D02*
Y45211D01*
Y44525D02*
X78039Y44500D01*
X77722Y45504D02*
X78014Y45211D01*
X72113Y45797D02*
Y46697D01*
Y45797D02*
X72406Y45504D01*
X70322Y46847D02*
X72150D01*
X69425Y45950D02*
X70322Y46847D01*
X69425Y44429D02*
Y45950D01*
X4481Y49506D02*
X54481D01*
X4481Y4506D02*
Y49506D01*
Y4506D02*
X54481D01*
Y48406D01*
X5581D02*
X54481D01*
X5581Y5606D02*
Y48406D01*
Y5606D02*
X53381D01*
Y47306D01*
X6681D02*
X53381D01*
X6681Y6706D02*
Y47306D01*
Y6706D02*
X52281D01*
Y46206D01*
X7781D02*
X52281D01*
X7781Y7806D02*
Y46206D01*
Y7806D02*
X51181D01*
Y45106D01*
X8881D02*
X51181D01*
X8881Y8906D02*
Y45106D01*
Y8906D02*
X50081D01*
Y44006D01*
X9981D02*
X50081D01*
X9981Y10006D02*
Y44006D01*
Y10006D02*
X48981D01*
Y42906D01*
X11081D02*
X48981D01*
X11081Y11106D02*
Y42906D01*
Y11106D02*
X47881D01*
Y41806D01*
X12181D02*
X47881D01*
X12181Y12206D02*
Y41806D01*
Y12206D02*
X46781D01*
Y40706D01*
D26*
X76227Y37169D02*
D03*
X74150D02*
D03*
X72073D02*
D03*
X69996D02*
D03*
X70427Y41523D02*
D03*
X79439Y42325D02*
D03*
X79439Y44325D02*
D03*
X74200Y48300D02*
D03*
X72100Y48247D02*
D03*
X74200Y46794D02*
D03*
X70492Y44563D02*
D03*
X55578Y42025D02*
D03*
X46781Y40706D02*
D03*
M02*
