G04*
G04 #@! TF.GenerationSoftware,Altium Limited,Altium Designer,20.2.6 (244)*
G04*
G04 Layer_Color=8388736*
%FSLAX43Y43*%
%MOMM*%
G71*
G04*
G04 #@! TF.SameCoordinates,EC15BF54-4284-41A4-B97D-D3D31D67AEB8*
G04*
G04*
G04 #@! TF.FilePolarity,Negative*
G04*
G01*
G75*
%ADD19R,0.868X0.483*%
%ADD20R,1.703X2.853*%
%ADD21R,1.067X1.010*%
%ADD22R,1.003X1.103*%
%ADD23R,1.103X1.003*%
%ADD24C,0.203*%
D19*
X71749Y41825D02*
D03*
Y42325D02*
D03*
Y42825D02*
D03*
Y43325D02*
D03*
Y43825D02*
D03*
Y44325D02*
D03*
X74550D02*
D03*
Y43825D02*
D03*
Y43325D02*
D03*
Y42825D02*
D03*
Y42325D02*
D03*
Y41825D02*
D03*
D20*
X73150Y43075D02*
D03*
D21*
X74150Y37169D02*
D03*
Y38676D02*
D03*
X76227Y37169D02*
D03*
Y38676D02*
D03*
X72073Y37169D02*
D03*
Y38676D02*
D03*
X69996Y37169D02*
D03*
Y38676D02*
D03*
X74200Y46794D02*
D03*
Y48300D02*
D03*
D22*
X79439Y42325D02*
D03*
X78039D02*
D03*
X78039Y44325D02*
D03*
X79439D02*
D03*
D23*
X72100Y48247D02*
D03*
Y46847D02*
D03*
D24*
X42800Y-4225D02*
D03*
Y58205D02*
D03*
M02*
