G04*
G04 #@! TF.GenerationSoftware,Altium Limited,Altium Designer,20.2.6 (244)*
G04*
G04 Layer_Color=8421504*
%FSLAX43Y43*%
%MOMM*%
G71*
G04*
G04 #@! TF.SameCoordinates,EC15BF54-4284-41A4-B97D-D3D31D67AEB8*
G04*
G04*
G04 #@! TF.FilePolarity,Positive*
G04*
G01*
G75*
%ADD14R,0.665X0.280*%
%ADD15R,1.500X2.650*%
%ADD16R,0.864X0.806*%
%ADD17R,0.800X0.900*%
%ADD18R,0.900X0.800*%
G36*
X74650Y48742D02*
X74650Y47942D01*
X74600Y47892D01*
X74358D01*
Y48262D01*
X74028Y48262D01*
Y47892D01*
X73800D01*
X73750Y47942D01*
Y48742D01*
X73800Y48792D01*
X74600D01*
X74650Y48742D01*
D02*
G37*
G36*
X74650Y47142D02*
X74650Y46352D01*
X74600Y46302D01*
X73800Y46302D01*
X73750Y46352D01*
Y47142D01*
X73800Y47192D01*
X74028D01*
Y46812D01*
X74358Y46812D01*
Y47192D01*
X74600D01*
X74650Y47142D01*
D02*
G37*
G36*
X76677Y39118D02*
X76677Y38318D01*
X76627Y38268D01*
X76385D01*
Y38638D01*
X76055Y38638D01*
Y38268D01*
X75827D01*
X75777Y38318D01*
Y39118D01*
X75827Y39168D01*
X76627D01*
X76677Y39118D01*
D02*
G37*
G36*
X74600D02*
X74600Y38318D01*
X74550Y38268D01*
X74308D01*
Y38638D01*
X73978Y38638D01*
Y38268D01*
X73750D01*
X73700Y38318D01*
Y39118D01*
X73750Y39168D01*
X74550D01*
X74600Y39118D01*
D02*
G37*
G36*
X72523D02*
X72523Y38318D01*
X72473Y38268D01*
X72231D01*
Y38638D01*
X71901Y38638D01*
Y38268D01*
X71673D01*
X71623Y38318D01*
Y39118D01*
X71673Y39168D01*
X72473D01*
X72523Y39118D01*
D02*
G37*
G36*
X70446D02*
X70446Y38318D01*
X70396Y38268D01*
X70154D01*
Y38638D01*
X69824Y38638D01*
Y38268D01*
X69596D01*
X69546Y38318D01*
Y39118D01*
X69596Y39168D01*
X70396D01*
X70446Y39118D01*
D02*
G37*
G36*
X76677Y37518D02*
X76677Y36728D01*
X76627Y36678D01*
X75827Y36678D01*
X75777Y36728D01*
Y37518D01*
X75827Y37568D01*
X76055D01*
Y37188D01*
X76385Y37188D01*
Y37568D01*
X76627D01*
X76677Y37518D01*
D02*
G37*
G36*
X74600D02*
X74600Y36728D01*
X74550Y36678D01*
X73750Y36678D01*
X73700Y36728D01*
Y37518D01*
X73750Y37568D01*
X73978D01*
Y37188D01*
X74308Y37188D01*
Y37568D01*
X74550D01*
X74600Y37518D01*
D02*
G37*
G36*
X72523D02*
X72523Y36728D01*
X72473Y36678D01*
X71673Y36678D01*
X71623Y36728D01*
Y37518D01*
X71673Y37568D01*
X71901D01*
Y37188D01*
X72231Y37188D01*
Y37568D01*
X72473D01*
X72523Y37518D01*
D02*
G37*
G36*
X70446D02*
X70446Y36728D01*
X70396Y36678D01*
X69596Y36678D01*
X69546Y36728D01*
Y37518D01*
X69596Y37568D01*
X69824D01*
Y37188D01*
X70154Y37188D01*
Y37568D01*
X70396D01*
X70446Y37518D01*
D02*
G37*
D14*
X71749Y41825D02*
D03*
Y42325D02*
D03*
Y42825D02*
D03*
Y43325D02*
D03*
Y43825D02*
D03*
Y44325D02*
D03*
X74550D02*
D03*
Y43825D02*
D03*
Y43325D02*
D03*
Y42825D02*
D03*
Y42325D02*
D03*
Y41825D02*
D03*
D15*
X73150Y43075D02*
D03*
D16*
X74150Y37169D02*
D03*
Y38676D02*
D03*
X76227Y37169D02*
D03*
Y38676D02*
D03*
X72073Y37169D02*
D03*
Y38676D02*
D03*
X69996Y37169D02*
D03*
Y38676D02*
D03*
X74200Y46794D02*
D03*
Y48300D02*
D03*
D17*
X79439Y42325D02*
D03*
X78039D02*
D03*
X78039Y44325D02*
D03*
X79439D02*
D03*
D18*
X72100Y48247D02*
D03*
Y46847D02*
D03*
M02*
